<svg width="640" height="640" viewBox="0 0 640 640" fill="none" xmlns="http://www.w3.org/2000/svg">
  <rect width="640" height="640" rx="42" fill="#8F08C5"/>
  <path opacity=".32" d="M44 257 450 55 277 441 44 257Z" fill="url(#dots2)"/>
  <path opacity=".25" d="M290 320h350v178c-95-16-185-5-267 31-88 38-194 42-319 10l236-219Z" fill="url(#dots2)"/>
  <ellipse cx="332" cy="552" rx="292" ry="27" fill="#B72BEE"/>
  <path d="M0 613 170 435h360L438 640H0v-27Z" fill="#FFCE28"/>
  <path d="M493 86c35 1 56 10 64 28 9 21 34 29 75 26v74c-43 4-74-6-94-29-16-18-31-27-45-27V86Z" fill="#FFCE28"/>
  <path d="M523 393h94v78h-94v-78Z" fill="#263B42"/>
  <path d="M545 421h23v23h-23v-23Z" fill="#FFCE28"/>
  <path d="M560 471v49" stroke="#263B42" stroke-width="13" stroke-linecap="round"/>
  <g transform="translate(174 172)">
    <path d="M91 42c-9-19 2-40 22-43 21-3 35 16 28 38l-6 21-31 2-13-18Z" fill="#172D34"/>
    <path d="M98 35c2 21 13 36 31 36 15 0 25-12 27-28l3-25c2-16-8-30-24-32-19-2-38 21-37 49Z" fill="#F68A7A"/>
    <path d="M88 42c12 1 22-7 30-23 10 24 23 33 41 27 5-30-8-51-38-53-28-1-42 17-33 49Z" fill="#172D34"/>
    <path d="M112 69l-6 38 46-7-17-36-23 5Z" fill="#F68A7A"/>
    <path d="M45 127c16-37 43-57 82-60 34-2 62 14 86 49l-39 35c-19-23-36-32-52-27-17 4-28 21-34 50l-18 83-55-15 30-115Z" fill="#FFD237"/>
    <path d="M52 246 17 386l70 15 35-132-70-23Z" fill="#263B42"/>
    <path d="m118 264 70 111 56-41-72-115-54 45Z" fill="#263B42"/>
    <path d="m15 385 70 15-6 41-87-18 23-38Z" fill="#F68A7A"/>
    <path d="m188 376 56-41 28 30-72 52-12-41Z" fill="#F68A7A"/>
    <path d="M156 121c20-5 38 3 54 24l44 59-38 29-51-49-9-63Z" fill="#FFD237"/>
    <path d="M214 219c20 2 36-5 47-19l24 24c-15 18-36 28-63 28l-8-33Z" fill="#F68A7A"/>
    <path d="M249 204c14-9 26-10 36-1l4 8-28 16-12-23Z" fill="#F68A7A"/>
  </g>
  <g transform="translate(345 86)">
    <path d="M83 38c-3-18 10-32 28-30 17 3 25 19 18 35l-8 17-27-5-11-17Z" fill="#172D34"/>
    <path d="M90 31c-1 18 9 31 25 34 13 2 23-7 27-21l5-21c3-14-5-27-19-30-17-4-35 13-38 38Z" fill="#F68A7A"/>
    <path d="M89 21c10 10 28 10 54 1-5-21-20-31-44-27-12 2-18 10-10 26Z" fill="#172D34"/>
    <path d="m108 64-5 33 41-2-13-34-23 3Z" fill="#F68A7A"/>
    <path d="M58 101c22-27 52-38 90-31 34 7 58 31 71 72l-50 19c-11-27-25-40-43-39-20 1-35 16-46 45l-33 89-55-19 66-136Z" fill="#FFD237"/>
    <path d="m60 240-31 153 69 12 30-147-68-18Z" fill="#263B42"/>
    <path d="m129 256 89 121 55-45-90-126-54 50Z" fill="#263B42"/>
    <path d="m31 392 67 12-2 39-86-12 21-39Z" fill="#263B42"/>
    <path d="m219 376 54-44 29 31-70 54-13-41Z" fill="#263B42"/>
    <path d="M151 117h80v105h-80V117Z" fill="#FFD237"/>
    <path d="M178 151h25v25h-25v-25Z" fill="#263B42"/>
  </g>
  <defs>
    <pattern id="dots2" width="10" height="10" patternUnits="userSpaceOnUse">
      <circle cx="2" cy="2" r="2" fill="#C673DF"/>
    </pattern>
  </defs>
</svg>
