<svg width="144" height="30" viewBox="0 0 144 30" fill="none" xmlns="http://www.w3.org/2000/svg">
<path d="M17.6215 0C18.8024 8.54666e-05 19.7335 0.985485 19.5746 2.1084C19.4383 3.02514 18.9381 3.96491 18.1205 4.74414L12.557 9.99219L11.9662 10.543C11.5801 10.9096 11.2616 11.2759 11.0345 11.6426C10.6259 12.2612 10.4221 12.9029 10.4447 13.5215V13.6367C10.5811 15.1721 12.6251 15.8827 13.806 14.7598L22.2543 6.78418L22.8675 6.21094C23.3444 5.7527 23.9349 5.52357 24.4799 5.52344H24.7074C24.7527 5.52344 24.7755 5.54578 24.8207 5.5459C24.8433 5.5459 24.8887 5.56909 24.9115 5.56934H24.9349C24.9578 5.56957 25.0032 5.5918 25.0258 5.5918H25.0482C25.0936 5.59182 25.1163 5.61523 25.139 5.61523H25.1615C25.1842 5.63815 25.2296 5.63821 25.2523 5.66113C25.2977 5.68405 25.3204 5.68411 25.3431 5.70703C25.3658 5.72992 25.3888 5.73002 25.4115 5.75293L25.4574 5.79883C25.5027 5.84437 25.5479 5.8674 25.5931 5.91309L25.639 5.95898L25.7064 6.00488C25.7291 6.0278 25.7299 6.02734 25.7299 6.02734L29.1361 9.23633C29.2857 9.37571 29.4297 9.52083 29.5707 9.66602L29.7494 9.83203C29.7896 9.88281 29.8302 9.92883 29.8705 9.97461C29.9061 10.0112 29.9413 10.0481 29.9769 10.084C30.2494 10.3818 30.5213 10.6572 30.7484 10.9551C30.7651 10.9758 30.7817 10.9969 30.7982 11.0176C32.0892 9.50734 32.6326 8.15808 32.1791 7.17383C31.5658 5.86747 29.2718 5.50061 26.0922 5.95898C25.7719 5.485 25.4719 5.27452 25.2484 5.1748C27.2851 4.69657 29.1635 4.46877 30.7484 4.46875C33.4057 4.46875 35.2687 5.13368 35.9047 6.50879C36.6994 8.25059 35.3136 10.8177 32.4066 13.5449C32.1654 13.0151 31.8622 12.4938 31.5023 11.9707C31.8419 12.4711 32.1309 12.9696 32.3617 13.4766C33.9966 17.0058 32.9742 20.4891 29.3177 23.9268L25.684 27.3418C24.7982 28.1897 23.7308 28.8541 22.5726 29.3125C21.4143 29.7709 20.1648 30 18.8929 30C17.7121 29.9999 16.781 29.0149 16.9398 27.915C17.0534 27.0212 17.5531 26.104 18.348 25.3477L23.0492 20.9248C23.4352 20.5582 23.9351 20.2831 24.4574 20.1914C25.4567 20.0081 26.502 20.1222 27.5013 20.5576C26.1613 19.1367 25.7072 17.1203 26.3431 15.4014C24.9577 16.5931 22.9135 16.8675 21.142 16.0654C22.0277 17.0051 22.5272 18.1974 22.5726 19.4121C22.5953 19.8246 22.3676 20.2141 22.0043 20.3975C21.6183 20.5808 21.232 20.764 20.8461 20.9473C18.3932 22.1161 15.9632 23.0332 13.6693 23.7207C13.1924 23.8582 12.7378 23.9958 12.2836 24.1104C11.7613 24.2477 11.1935 24.1792 10.7621 23.8584C10.694 23.8126 10.6486 23.7665 10.5804 23.7207L8.96813 22.208L7.44665 20.7646L7.40075 20.7188L7.05114 20.374C7.17332 20.4945 7.29818 20.615 7.42321 20.7412L6.94665 20.2832C6.86093 20.1967 6.77599 20.109 6.70934 20.0225C6.69783 20.0099 6.6856 19.998 6.67419 19.9854C6.28816 19.5729 5.92473 19.183 5.60681 18.7705C5.56138 18.7018 5.53895 18.6552 5.49352 18.6094C5.42541 18.5177 5.35656 18.4266 5.28845 18.335C5.24311 18.2663 5.19804 18.1975 5.1527 18.1289C5.06186 17.9914 4.97108 17.8533 4.88024 17.7158C4.85753 17.67 4.81141 17.601 4.76599 17.5322C4.74322 17.4636 4.69802 17.3948 4.6527 17.3262C4.56191 17.1887 4.49327 17.0515 4.42517 16.9141C4.40245 16.8453 4.35706 16.7992 4.33434 16.7305C4.31377 16.7302 4.31201 16.711 4.31188 16.708V16.6846C4.17564 16.4096 4.03943 16.1343 3.9486 15.8594C2.72229 12.5592 3.81286 9.30514 7.26501 6.05078L10.9213 2.6123C11.807 1.76444 12.8747 1.10046 14.0101 0.665039L13.9642 0.6875C15.1225 0.229129 16.3496 0 17.6215 0ZM3.6527 16.1807C3.72087 16.3641 3.88048 16.7992 4.03942 17.0283C2.60856 18.6097 1.99509 20.0541 2.47204 21.0625C3.06283 22.3685 5.31148 22.7352 8.46813 22.2998L9.76306 23.6064C9.77982 23.6254 10.3001 24.2053 11.1937 24.4082C5.56117 25.7375 1.24607 25.3705 0.223993 23.1475V23.1709C-0.570895 21.4292 0.79123 18.862 3.6527 16.1807ZM25.2484 5.1748C25.2422 5.17627 25.2361 5.17822 25.2299 5.17969L25.2064 5.15625C25.22 5.16174 25.2342 5.16845 25.2484 5.1748Z" fill="url(#paint0_linear_1_20)"/>
<path d="M51.8705 19.8246V11.1155H54.1417V8.5028H51.8705V7.884C51.8705 6.82975 52.461 6.27971 53.2559 6.27971C53.801 6.27971 54.1871 6.44014 54.4824 6.761L55.5953 4.99627C54.8685 4.21704 53.7329 3.94202 52.6654 3.94202C50.4169 3.94202 48.8725 5.45464 48.8725 7.884V8.5028H47.0101V11.1155H48.8725V19.8246H51.8478H51.8705ZM114.987 19.8246C116.214 19.8246 117.009 19.5037 117.44 19.0912L116.804 16.8452C116.645 17.0056 116.214 17.1889 115.782 17.1889C115.124 17.1889 114.76 16.6389 114.76 15.9513V4.21704H111.785V16.7535C111.785 18.7703 112.898 19.8475 114.965 19.8475L114.987 19.8246ZM79.7382 26.9981V25.9438C79.8745 25.7375 80.147 25.6 80.3968 25.6C80.8511 25.6 81.1463 25.9438 81.1463 26.4709C81.1463 26.9981 80.8511 27.3418 80.3968 27.3418C80.147 27.3418 79.8517 27.2043 79.7382 26.9981ZM79.7382 27.9606V27.571C79.9653 27.869 80.2833 28.0294 80.6467 28.0294C81.3962 28.0294 81.964 27.4564 81.964 26.4709C81.964 25.4854 81.4189 24.9125 80.6467 24.9125C80.306 24.9125 79.9653 25.0729 79.7382 25.3708V23.8582H78.966V27.9606H79.7382ZM82.4409 29.1295C82.5318 29.1524 82.7362 29.1753 82.827 29.1753C83.3267 29.1524 83.7355 29.0149 83.9399 28.4648L85.3253 25.0042H84.485L83.7128 27.0668L82.9406 25.0042H82.1002L83.304 28.0294L83.1904 28.2815C83.1223 28.4419 82.986 28.4878 82.7816 28.4878C82.7135 28.4878 82.5999 28.4648 82.5318 28.4419L82.4182 29.1524L82.4409 29.1295ZM90.9125 27.9606V23.8582H90.0495V26.448L88.1644 23.8582H87.2786V27.9606H88.1416V25.2792L90.0949 27.9606H90.9352H90.9125ZM95.5231 27.9606L93.9559 23.8582H92.8657L91.2986 27.9606H92.2979L92.5478 27.2731H94.2966L94.5464 27.9606H95.5458H95.5231ZM94.0468 26.4939H92.7749L93.4108 24.7291L94.0468 26.4939ZM98.8617 27.9606V27.1814H96.8858L98.8163 24.5458V23.8353H95.7502V24.6145H97.6807L95.7502 27.2502V27.9606H98.8617ZM102.473 27.9606V27.1814H100.497L102.428 24.5458V23.8353H99.3614V24.6145H101.292L99.3614 27.2502V27.9606H102.473ZM106.925 27.9606L105.357 23.8582H104.267L102.7 27.9606H103.699L103.949 27.2731H105.698L105.948 27.9606H106.947H106.925ZM105.448 26.4939H104.176L104.812 24.7291L105.448 26.4939ZM110.604 27.9606L109.695 26.4022C110.127 26.2876 110.581 25.898 110.581 25.1875C110.581 24.4312 110.059 23.8582 109.218 23.8582H107.311V27.9606H108.174V26.4939H108.81L109.605 27.9606H110.604ZM109.082 25.7375H108.174V24.6375H109.082C109.423 24.6375 109.695 24.8437 109.695 25.1875C109.695 25.5313 109.423 25.7375 109.082 25.7375ZM113.67 27.9606V23.8582H112.807V27.9606H113.67ZM117.236 27.9606V25.8521C117.236 25.2792 116.918 24.9125 116.282 24.9125C115.805 24.9125 115.442 25.1417 115.26 25.3708V24.9812H114.488V27.9606H115.26V25.9667C115.396 25.7834 115.623 25.6229 115.941 25.6229C116.282 25.6229 116.486 25.7605 116.486 26.173V27.9836H117.258L117.236 27.9606ZM120.779 27.9606V25.8521C120.779 25.2792 120.461 24.9125 119.825 24.9125C119.348 24.9125 118.985 25.1417 118.803 25.3708V24.9812H118.031V27.9606H118.803V25.9667C118.939 25.7834 119.166 25.6229 119.484 25.6229C119.825 25.6229 120.029 25.7605 120.029 26.173V27.9836H120.802L120.779 27.9606ZM122.914 28.0294C123.89 28.0294 124.481 27.3189 124.481 26.4709C124.481 25.6229 123.89 24.9125 122.914 24.9125C121.937 24.9125 121.347 25.6229 121.347 26.4709C121.347 27.3189 121.937 28.0294 122.914 28.0294ZM122.914 27.3418C122.437 27.3418 122.164 26.9293 122.164 26.4709C122.164 26.0126 122.437 25.6 122.914 25.6C123.391 25.6 123.663 26.0126 123.663 26.4709C123.663 26.9293 123.391 27.3418 122.914 27.3418ZM126.661 27.9606L127.842 24.9812H127.002L126.23 27.0439L125.458 24.9812H124.617L125.798 27.9606H126.639H126.661ZM130.749 27.9606V26.0355C130.749 25.1875 130.136 24.9125 129.455 24.9125C129.001 24.9125 128.524 25.05 128.16 25.3708L128.456 25.898C128.705 25.6688 129.001 25.5542 129.319 25.5542C129.705 25.5542 129.977 25.7605 129.977 26.0584V26.4709C129.773 26.2418 129.432 26.1042 129.046 26.1042C128.569 26.1042 128.024 26.3793 128.024 27.0668C128.024 27.7315 128.569 28.0523 129.046 28.0523C129.432 28.0523 129.773 27.9148 129.977 27.6627V27.9606H130.749ZM129.341 27.5023C129.046 27.5023 128.796 27.3418 128.796 27.0668C128.796 26.7689 129.046 26.6084 129.341 26.6084C129.591 26.6084 129.841 26.7001 129.955 26.8605V27.2272C129.818 27.4106 129.591 27.4794 129.341 27.4794V27.5023ZM132.498 28.0294C132.816 28.0294 133.021 27.9377 133.157 27.846L132.998 27.2502C132.953 27.296 132.839 27.3418 132.725 27.3418C132.544 27.3418 132.453 27.2043 132.453 27.021V25.6688H133.043V24.9812H132.453V24.1562H131.681V24.9812H131.181V25.6688H131.681V27.2272C131.681 27.7544 131.976 28.0294 132.521 28.0294H132.498ZM133.952 24.6604C134.202 24.6604 134.406 24.4541 134.406 24.202C134.406 23.9499 134.202 23.7436 133.952 23.7436C133.702 23.7436 133.475 23.9499 133.475 24.202C133.475 24.4541 133.679 24.6604 133.952 24.6604ZM134.338 27.9606V24.9812H133.566V27.9606H134.338ZM136.473 28.0294C137.449 28.0294 138.04 27.3189 138.04 26.4709C138.04 25.6229 137.449 24.9125 136.473 24.9125C135.496 24.9125 134.906 25.6229 134.906 26.4709C134.906 27.3189 135.496 28.0294 136.473 28.0294ZM136.473 27.3418C135.996 27.3418 135.723 26.9293 135.723 26.4709C135.723 26.0126 135.996 25.6 136.473 25.6C136.95 25.6 137.222 26.0126 137.222 26.4709C137.222 26.9293 136.95 27.3418 136.473 27.3418ZM141.379 27.9606V25.8521C141.379 25.2792 141.061 24.9125 140.425 24.9125C139.948 24.9125 139.584 25.1417 139.403 25.3708V24.9812H138.631V27.9606H139.403V25.9667C139.539 25.7834 139.766 25.6229 140.084 25.6229C140.425 25.6229 140.629 25.7605 140.629 26.173V27.9836H141.401L141.379 27.9606ZM66.3835 19.8475V8.52572H63.4309V16.1805C62.9313 16.8222 62.0228 17.464 60.8872 17.464C59.638 17.464 58.8204 16.9368 58.8204 15.3784V8.5028H55.8678V16.5472C55.8678 18.7474 57.0261 20.0996 59.5018 20.0996C61.3414 20.0996 62.6814 19.2516 63.4537 18.4036V19.8246H66.4062L66.3835 19.8475ZM73.0836 20.1225C74.31 20.1225 75.1049 19.8016 75.5365 19.3891L74.9005 17.1431C74.7415 17.3035 74.3327 17.464 73.8785 17.464C73.2198 17.464 72.8564 16.9368 72.8564 16.2264V11.1155H75.1276V8.5028H72.8564V5.4088H69.8812V8.5028H68.0188V11.1155H69.8812V17.0285C69.8812 19.0453 70.994 20.1225 73.0608 20.1225H73.0836ZM87.6874 19.8475V8.52572H84.7348V16.1805C84.2352 16.8222 83.3267 17.464 82.1911 17.464C80.9419 17.464 80.1243 16.9368 80.1243 15.3784V8.5028H77.1717V16.5472C77.1717 18.7474 78.33 20.0996 80.8057 20.0996C82.6453 20.0996 83.9853 19.2516 84.7575 18.4036V19.8246H87.7101L87.6874 19.8475ZM93.5698 19.8475V12.376C94.0468 11.6426 95.3641 11.0926 96.3407 11.0926C96.6587 11.0926 96.9539 11.1155 97.1583 11.1614V8.2507C95.7729 8.2507 94.3647 9.07577 93.5698 10.0842V8.52572H90.6173V19.8475H93.5698ZM104.244 20.1225C105.993 20.1225 107.765 19.5954 108.855 18.564L107.56 16.6389C106.834 17.3494 105.516 17.7619 104.562 17.7619C102.655 17.7619 101.519 16.5701 101.337 15.1492H109.673V14.4845C109.673 10.7947 107.401 8.2507 104.04 8.2507C100.633 8.2507 98.2258 10.8863 98.2258 14.1866C98.2258 17.8306 100.792 20.1454 104.222 20.1454L104.244 20.1225ZM106.834 13.1323H101.315C101.451 12.0093 102.246 10.6113 104.086 10.6113C106.039 10.6113 106.788 12.0323 106.856 13.1323H106.834ZM129.137 19.8475V12.5365C129.137 9.28204 126.798 8.2507 124.231 8.2507C122.46 8.2507 120.711 8.80075 119.325 10.0383L120.438 12.0323C121.392 11.1384 122.505 10.703 123.709 10.703C125.208 10.703 126.162 11.4593 126.162 12.6052V14.1408C125.412 13.2469 124.095 12.7657 122.619 12.7657C120.824 12.7657 118.712 13.7741 118.712 16.4097C118.712 18.9307 120.824 20.1454 122.619 20.1454C124.072 20.1454 125.412 19.6183 126.162 18.7016V19.8704H129.114L129.137 19.8475ZM123.822 18.1057C122.664 18.1057 121.71 17.4869 121.71 16.4326C121.71 15.3325 122.664 14.7366 123.822 14.7366C124.776 14.7366 125.707 15.0575 126.184 15.7221V17.1202C125.707 17.7848 124.776 18.1057 123.822 18.1057ZM135.019 16.2034V12.1927C135.496 11.4364 136.609 10.8863 137.563 10.8863C139.289 10.8863 140.425 12.2156 140.425 14.1866C140.425 16.1576 139.289 17.464 137.563 17.464C136.609 17.464 135.519 16.9368 135.019 16.2034ZM135.019 19.8475V18.3807C135.905 19.5037 137.132 20.1225 138.472 20.1225C141.311 20.1225 143.445 17.9682 143.445 14.1866C143.445 10.4738 141.333 8.22778 138.472 8.22778C137.154 8.22778 135.882 8.80075 135.019 9.96959V4.19412H132.067V19.8246H135.019V19.8475Z" fill="white"/>
<defs>
<linearGradient id="paint0_linear_1_20" x1="1.08701" y1="14.1753" x2="34.9962" y2="14.1753" gradientUnits="userSpaceOnUse">
<stop stop-color="#FCCC00"/>
<stop offset="0.301961" stop-color="#FD7249"/>
<stop offset="0.560784" stop-color="#D082F2"/>
<stop offset="0.760784" stop-color="#A293E8"/>
<stop offset="1" stop-color="#3FA1FC"/>
</linearGradient>
</defs>
</svg>
