<svg width="55" height="55" viewBox="0 0 55 55" fill="none" xmlns="http://www.w3.org/2000/svg">
<rect width="55" height="55" rx="13" fill="#0051FF"/>
<path fill-rule="evenodd" clip-rule="evenodd" d="M14.0576 25.7607C22.1145 22.2331 27.4857 19.9055 30.1714 18.7834C37.847 15.5725 39.4384 15.017 40.4773 15.0003C40.7039 14.9948 41.2178 15.0559 41.5494 15.3225C41.8312 15.5503 41.9085 15.8558 41.9417 16.0725C41.9749 16.2891 42.0246 16.7835 41.9859 17.1668C41.5715 21.561 39.77 32.2157 38.8582 37.1376C38.4714 39.2208 37.7088 39.9152 36.9683 39.9874C35.3658 40.1374 34.1445 38.9208 32.5917 37.8986C30.1603 36.2988 28.7843 35.2988 26.4248 33.7323C23.6949 31.9269 25.4632 30.9325 27.0216 29.3104C27.4305 28.8882 34.4982 22.422 34.6364 21.8332C34.6529 21.761 34.6695 21.4887 34.5093 21.3443C34.349 21.1999 34.1114 21.2499 33.9346 21.2888C33.6914 21.3443 29.8067 23.9275 22.2803 29.0326C21.1751 29.7937 20.1804 30.1659 19.2852 30.1437C18.296 30.1214 16.4006 29.5826 14.9915 29.1215C13.2619 28.5549 11.8859 28.2549 12.0075 27.2994C12.0683 26.7939 12.7535 26.2828 14.0576 25.7607Z" fill="white"/>
</svg>
