<svg width="37" height="30" viewBox="0 0 37 30" fill="none" xmlns="http://www.w3.org/2000/svg">
<path d="M17.6215 0C18.8024 8.54666e-05 19.7335 0.985485 19.5746 2.1084C19.4383 3.02514 18.9381 3.96491 18.1205 4.74414L12.557 9.99219L11.9662 10.543C11.5801 10.9096 11.2616 11.2759 11.0345 11.6426C10.6259 12.2612 10.4221 12.9029 10.4447 13.5215V13.6367C10.5811 15.1721 12.6251 15.8827 13.806 14.7598L22.2543 6.78418L22.8675 6.21094C23.3444 5.7527 23.9349 5.52357 24.4799 5.52344H24.7074C24.7527 5.52344 24.7755 5.54578 24.8207 5.5459C24.8433 5.5459 24.8887 5.56909 24.9115 5.56934H24.9349C24.9578 5.56957 25.0032 5.5918 25.0258 5.5918H25.0482C25.0936 5.59182 25.1163 5.61523 25.139 5.61523H25.1615C25.1842 5.63815 25.2296 5.63821 25.2523 5.66113C25.2977 5.68405 25.3204 5.68411 25.3431 5.70703C25.3658 5.72992 25.3888 5.73002 25.4115 5.75293L25.4574 5.79883C25.5027 5.84437 25.5479 5.8674 25.5931 5.91309L25.639 5.95898L25.7064 6.00488C25.7291 6.0278 25.7299 6.02734 25.7299 6.02734L29.1361 9.23633C29.2857 9.37571 29.4297 9.52083 29.5707 9.66602L29.7494 9.83203C29.7896 9.88281 29.8302 9.92883 29.8705 9.97461C29.9061 10.0112 29.9413 10.0481 29.9769 10.084C30.2494 10.3818 30.5213 10.6572 30.7484 10.9551C30.7651 10.9758 30.7817 10.9969 30.7982 11.0176C32.0892 9.50734 32.6326 8.15808 32.1791 7.17383C31.5658 5.86747 29.2718 5.50061 26.0922 5.95898C25.7719 5.485 25.4719 5.27452 25.2484 5.1748C27.2851 4.69657 29.1635 4.46877 30.7484 4.46875C33.4057 4.46875 35.2687 5.13368 35.9047 6.50879C36.6994 8.25059 35.3136 10.8177 32.4066 13.5449C32.1654 13.0151 31.8622 12.4938 31.5023 11.9707C31.8419 12.4711 32.1309 12.9696 32.3617 13.4766C33.9966 17.0058 32.9742 20.4891 29.3177 23.9268L25.684 27.3418C24.7982 28.1897 23.7308 28.8541 22.5726 29.3125C21.4143 29.7709 20.1648 30 18.8929 30C17.7121 29.9999 16.781 29.0149 16.9398 27.915C17.0534 27.0212 17.5531 26.104 18.348 25.3477L23.0492 20.9248C23.4352 20.5582 23.9351 20.2831 24.4574 20.1914C25.4567 20.0081 26.502 20.1222 27.5013 20.5576C26.1613 19.1367 25.7072 17.1203 26.3431 15.4014C24.9577 16.5931 22.9135 16.8675 21.142 16.0654C22.0277 17.0051 22.5272 18.1974 22.5726 19.4121C22.5953 19.8246 22.3676 20.2141 22.0043 20.3975C21.6183 20.5808 21.232 20.764 20.8461 20.9473C18.3932 22.1161 15.9632 23.0332 13.6693 23.7207C13.1924 23.8582 12.7378 23.9958 12.2836 24.1104C11.7613 24.2477 11.1935 24.1792 10.7621 23.8584C10.694 23.8126 10.6486 23.7665 10.5804 23.7207L8.96813 22.208L7.44665 20.7646L7.40075 20.7188L7.05114 20.374C7.17332 20.4945 7.29818 20.615 7.42321 20.7412L6.94665 20.2832C6.86093 20.1967 6.77599 20.109 6.70934 20.0225C6.69783 20.0099 6.6856 19.998 6.67419 19.9854C6.28816 19.5729 5.92473 19.183 5.60681 18.7705C5.56138 18.7018 5.53895 18.6552 5.49352 18.6094C5.42541 18.5177 5.35656 18.4266 5.28845 18.335C5.24311 18.2663 5.19804 18.1975 5.1527 18.1289C5.06186 17.9914 4.97108 17.8533 4.88024 17.7158C4.85753 17.67 4.81141 17.601 4.76599 17.5322C4.74322 17.4636 4.69802 17.3948 4.6527 17.3262C4.56191 17.1887 4.49327 17.0515 4.42517 16.9141C4.40245 16.8453 4.35706 16.7992 4.33434 16.7305C4.31377 16.7302 4.31201 16.711 4.31188 16.708V16.6846C4.17564 16.4096 4.03943 16.1343 3.9486 15.8594C2.72229 12.5592 3.81286 9.30514 7.26501 6.05078L10.9213 2.6123C11.807 1.76444 12.8747 1.10046 14.0101 0.665039L13.9642 0.6875C15.1225 0.229129 16.3496 0 17.6215 0ZM3.6527 16.1807C3.72087 16.3641 3.88048 16.7992 4.03942 17.0283C2.60856 18.6097 1.99509 20.0541 2.47204 21.0625C3.06283 22.3685 5.31148 22.7352 8.46813 22.2998L9.76306 23.6064C9.77982 23.6254 10.3001 24.2053 11.1937 24.4082C5.56117 25.7375 1.24607 25.3705 0.223993 23.1475V23.1709C-0.570895 21.4292 0.79123 18.862 3.6527 16.1807ZM25.2484 5.1748C25.2422 5.17627 25.2361 5.17822 25.2299 5.17969L25.2064 5.15625C25.22 5.16174 25.2342 5.16845 25.2484 5.1748Z" fill="url(#paint0_linear_1_21)"/>
<defs>
<linearGradient id="paint0_linear_1_21" x1="1.08701" y1="14.1753" x2="34.9962" y2="14.1753" gradientUnits="userSpaceOnUse">
<stop stop-color="#FCCC00"/>
<stop offset="0.301961" stop-color="#FD7249"/>
<stop offset="0.560784" stop-color="#D082F2"/>
<stop offset="0.760784" stop-color="#A293E8"/>
<stop offset="1" stop-color="#3FA1FC"/>
</linearGradient>
</defs>
</svg>
