<svg width="83" height="83" viewBox="0 0 83 83" fill="none" xmlns="http://www.w3.org/2000/svg">
<path fill-rule="evenodd" clip-rule="evenodd" d="M45.9055 0.472295H41.5H37.0945L34.7175 21.1758L8.0445 0L4.01838 4.02612L0 8.0445L21.1758 34.7175L0.472295 37.1022V41.5V45.9055L21.1758 48.2825L0 74.9632L4.01838 78.9816L8.0445 83L34.7175 61.8242L37.0945 82.5354H41.5H45.9055L48.2825 61.8242L74.9555 83L78.9816 78.9816L83 74.9632L61.8242 48.2825L82.5277 45.9055V41.5V37.1022L61.8242 34.7175L83 8.0445L78.9816 4.02612L74.9555 0L48.2825 21.1758L45.9055 0.472295Z" fill="#8715A3"/>
</svg>
