<svg width="83" height="84" viewBox="0 0 83 84" fill="none" xmlns="http://www.w3.org/2000/svg">
<path fill-rule="evenodd" clip-rule="evenodd" d="M0 0H20.334C31.9747 0 41.4963 9.44769 41.4963 20.9981H61.8303C73.471 20.9981 83 11.5505 83 0H62.6585C51.0253 0 41.4963 9.44769 41.4963 20.9981H21.1623C9.52153 20.9981 0 11.5505 0 0ZM83 63.0019H62.6585C51.0253 63.0019 41.4963 72.4495 41.4963 84H21.1623C9.52153 84 0 74.5523 0 63.0019H20.334C31.9747 63.0019 41.4963 72.4495 41.4963 84H61.8303C73.471 84 83 74.5523 83 63.0019ZM83 41.9963H62.6585C51.0253 41.9963 41.4963 51.4514 41.4963 63.0019H21.1623C9.52153 63.0019 0 53.5468 0 41.9963H20.334C31.9747 41.9963 41.4963 51.4514 41.4963 63.0019H61.8303C73.471 63.0019 83 53.5468 83 41.9963ZM83 20.9981H62.6585C51.0253 20.9981 41.4963 30.4458 41.4963 41.9963H21.1623C9.52153 41.9963 0 32.5486 0 20.9981H20.334C31.9747 20.9981 41.4963 30.4458 41.4963 41.9963H61.8303C73.471 41.9963 83 32.5486 83 20.9981Z" fill="#8715A3"/>
</svg>
