<svg width="83" height="83" viewBox="0 0 83 83" fill="none" xmlns="http://www.w3.org/2000/svg">
<path fill-rule="evenodd" clip-rule="evenodd" d="M83 33.4859V49.5141H62.9227C58.5114 49.5141 54.9086 45.9113 54.9086 41.5C54.9086 37.0887 58.5114 33.4859 62.9227 33.4859H83ZM76.5124 65.1801L65.1736 76.5124L50.9824 62.3147C47.8647 59.197 47.8647 54.1001 50.9824 50.9824C54.1001 47.8647 59.197 47.8647 62.3147 50.9824L76.5124 65.1801ZM17.8199 6.48761L6.48761 17.8199L20.6789 32.0176C23.7965 35.1353 28.8999 35.1353 32.0176 32.0176C35.1353 28.8999 35.1353 23.803 32.0176 20.6853L17.8199 6.48761ZM33.4859 0H49.5141V20.0773C49.5141 24.4822 45.9048 28.0914 41.5 28.0914C37.0887 28.0914 33.4859 24.4822 33.4859 20.0773V0ZM33.4859 83H49.5141V62.9227C49.5141 58.5178 45.9048 54.9086 41.5 54.9086C37.0887 54.9086 33.4859 58.5178 33.4859 62.9227V83ZM65.1736 6.48761L76.5124 17.8199L62.3147 32.0176C59.197 35.1353 54.1001 35.1353 50.9824 32.0176C47.8647 28.8999 47.8647 23.803 50.9824 20.6853L65.1736 6.48761ZM6.48761 65.1801L17.8199 76.5124L32.0176 62.3147C35.1353 59.197 35.1353 54.1001 32.0176 50.9824C28.8999 47.8647 23.7965 47.8647 20.6789 50.9824L6.48761 65.1801ZM0 33.4859V49.5141H20.0773C24.4822 49.5141 28.0914 45.9113 28.0914 41.5C28.0914 37.0887 24.4822 33.4859 20.0773 33.4859H0Z" fill="#B24ECC"/>
</svg>
